<svg version="1.2" xmlns="http://www.w3.org/2000/svg" viewBox="0 0 700 799" width="700" height="799">
	<title>akram-logo-white</title>
	<style>
		.s0 { fill: #000000 } 
	</style>
	<path fill-rule="evenodd" class="s0" d="m583.2 43.7c0 38.2-16.8 79.3-57.1 139.3-27.5 40.8-30.3 45.3-37.1 59-16 32.2-19.1 62.9-7.7 74.3 7.4 7.4 13 4.7 56.9-27 15.1-10.9 40.4-27.3 42.1-27.3 0.3 0 3.2-1.5 6.4-3.4 35-20.3 69.3-17.2 69.3 6.3 0 7-1.9 11.9-16.8 43.1-8.2 17.4-8.3 19.2-2.3 37.3 38.5 116.2 41.5 226.4 8.1 295.2-17.3 35.5-36 49.8-25.9 19.8 15.1-44.9 15.4-46.1 15.4-75.8 0-22.8-0.4-27.2-5-56-0.8-5-1.7-11.2-2-14-1-7.7-11.6-65.2-14.6-78.5-13-59.5-15.7-86.2-11.1-113.2 3.3-19 3.4-18.8-12.8-18.8-18.3 0-38.6 7.9-68 26.6-51.7 32.7-69.4 26.6-69.3-24.1 0-34.8 10.4-63.8 37.8-105.5 18-27.5 18.4-29.6 3-19.1-19.8 13.6-49.9 33.4-55.5 36.5-3.6 2-7.2 4.1-8 4.6-0.8 0.5-5.3 3-10 5.5-4.7 2.5-9.2 5-10 5.5-0.8 0.5-7.4 3.7-14.5 7.1-45.6 22-113.5 65.8-113.5 73.2 0 2.4 15.2 15 38 31.7 5.1 3.7 19.1 13 19.5 13 0.3 0 3.5 2 7.2 4.4 8.1 5.2 27.2 16.5 36.3 21.4 3.6 1.9 6.9 3.8 7.5 4.2 1 0.8 47.7 27.1 53 29.8 1.6 0.9 6.7 4 11.2 6.9 4.6 2.9 8.5 5.3 8.9 5.3 1.2 0 24 15.5 31.1 21.3 12.1 9.6 28.9 27.7 35.1 37.7 23.4 38.2 15.7 103.5-15 126.5-9.8 7.4-33.4 20-42.8 23-23.4 7.4-59 33-96 69.1-13.5 13.1-24.9 23.5-39.5 36-76 64.8-143.8 27.1-140.3-78.1 0.3-10.5 0.1-11-2.7-6.3-1 1.8-6.9 8.2-12.9 14.3-9.7 9.7-15.7 14.4-28.1 22.1-21.3 13.2-56.8 9.5-75.1-7.8-38-35.8-33.2-134.6 9.6-196.7 1-1.5 4.5-7.1 7.9-12.6 6.6-10.7 9.4-14.8 18.3-26.5 21.5-28.5 21.4-12.9-0.1 22.9-51.7 85.9-50.1 164.8 3.5 166.9 31.4 1.2 58.7-17.9 96-67.3 2.1-2.8 4.1-5.2 4.4-5.5 1.2-1 6.8-9.6 9-13.9 1.5-3.1 2.5-7.4 3-14 5-57.5 38.3-97.4 73.9-88.5 63 15.8 85.2 105.4 32.9 132.9-28.8 15.1-72.9 18.5-90.6 6.9-3.9-2.6-10.2 6.5-20.5 29.6-15.9 35.5-8.5 79.1 15.6 92.9 30.5 17.3 61.8 4.2 113.2-47.5 25.3-25.4 33.3-32.7 45.5-41.4 4.1-2.9 7.7-5.6 8-6 1.7-2.2 24.4-15.2 47.5-27 33.8-17.4 39-20.2 40.6-21.6 0.8-0.8 1.9-1.4 2.3-1.4 0.9 0 10.6-7.1 16.8-12.3 5.9-4.9 6-6.7 0.9-14.3-7.9-11.8-34.5-32.9-56.3-44.7-12.6-6.8-16.8-9.2-21.8-12.2-3-1.7-10-5.6-15.5-8.5-14-7.4-24.4-13-28.2-15.1-9.1-5.1-17.7-9.8-25.5-13.9-4.8-2.5-16.7-9-26.5-14.5-9.8-5.4-19.6-10.9-21.8-12-8.3-4.5-28.9-16.7-34.5-20.5-3.3-2.2-6.1-4-6.5-4-5 0-23.7-19.1-28.4-29l-3.6-7.5v-14c0-47.9 21.5-82.7 73.1-118.5 20.2-14 20-13.9 36-23.9 6.6-4.1 14.8-9.3 18.4-11.6 3.6-2.3 7.2-4.4 8-4.8 0.8-0.4 2.2-1.1 3-1.7 5-3.3 21-13 21.5-13 0.2 0 3-1.6 6-3.6 3.1-1.9 8.1-4.9 11.3-6.6 3.1-1.7 6.4-3.7 7.3-4.4 0.8-0.8 1.8-1.4 2.1-1.4 0.6 0 13.2-7.7 30.3-18.5 7-4.4 14-8.8 15.7-9.8 1.7-1 5-3.2 7.4-5 2.4-1.8 6.9-5 10-7.2 30.6-21.9 60.3-54 76.6-82.8 2.5-4.5 5.1-8.8 5.7-9.5 3.8-4.1 5.2 0.6 5.3 17.5zm-316 473c-7.3 3.6-14.5 16.9-11.3 20.7 5.8 6.9 53.1 4.3 53.1-2.9 0-9.3-31.7-22.8-41.8-17.8zm-199.4-68.1c0 0-0.8 0.2-1.6 0.3l-0.6-30.7c2-0.4 3.5-1.9 4.2-3.7 1.3-3.1-0.6-6.7-4.1-8.1-3.5-1.4-7.2-0.1-8.6 2.9-1.7 3.5 0.7 6.1 4 7.9l-1.2 20-0.7 11c-0.7-0.2-1.5-0.4-1.9-0.6-7.8-13.4-15.8-25.7-24.3-36-0.5-0.6-0.5-1.4-0.1-2 4.8-7.9 8.5-15.6 10.4-24.5 0.2-0.6 0.6-1.1 1.2-1.3 3.8-1.2 19.1-5.4 33.9 2.7q0.5 2.9 1.2 5.9c1.5 6.5 4 13.3 6.9 20.2 0.3 0.5 0.2 1.1-0.1 1.6-7 11.4-13.3 22.9-18.6 34.4zm238.7-308.7q-0.1 0.1-0.2 0.2c0 0 7.9-5.4 17.5-13.3-11 48.8-40.2 101.9-110.7 131.5-44.7 18.8-91.8 27.2-114.8 40.4-39.1 22.3-44.7 52.7-38.8 80.7q0 0-0.1-0.3c-2.3-3.6-24.8-42.8 9.2-94.2 14-21.2 67.5-63.4 155.2-59.6-0.9-0.5-5.1-2.5-20-6.8-3.7-1.1-7.6-2.1-11.6-2.9 17-7.2 33.6-15.8 48.4-28 80.9-66.2 80.8-139.2 83.8-169.6 0 0 7.2 30 4.8 69.7-1.2 19.5-9.1 38.1-22.7 52.2z"/>
</svg>