<svg version="1.2" xmlns="http://www.w3.org/2000/svg" viewBox="0 0 603 182" width="603" height="182"><style>.a{fill:#f90}.b{fill:#221f1f}</style><path fill-rule="evenodd" class="a" d="m374 142.2c-35 25.8-85.7 39.5-129.4 39.5-61.2 0-116.4-22.6-158.1-60.3-3.3-2.9-0.3-7 3.6-4.7 45 26.2 100.7 42 158.2 42 38.7 0 81.4-8 120.6-24.7 5.9-2.5 10.9 3.9 5.1 8.2zm14.6-16.7c-4.5-5.7-29.6-2.7-40.9-1.3-3.4 0.4-3.9-2.6-0.9-4.7 20-14.1 52.9-10.1 56.7-5.3 3.8 4.7-1 37.6-19.8 53.3-2.9 2.4-5.6 1.1-4.3-2.1 4.2-10.5 13.6-34.1 9.2-39.9z"/><path fill-rule="evenodd" class="b" d="m348.5 20.1v-13.7c0-2.1 1.6-3.5 3.5-3.5h61.2c2 0 3.6 1.4 3.6 3.5v11.7c-0.1 2-1.7 4.5-4.6 8.6l-31.8 45.3c11.8-0.3 24.3 1.5 35 7.5 2.4 1.4 3 3.4 3.2 5.3v14.7c0 1.9-2.2 4.3-4.5 3.1-18.9-9.9-43.9-11-64.7 0.1-2.2 1.1-4.4-1.2-4.4-3.2v-13.8c0-2.3 0-6.1 2.3-9.5l36.7-52.7h-32c-1.9 0-3.5-1.4-3.5-3.4zm-223.5 85.4h-18.6c-1.8-0.2-3.2-1.5-3.4-3.2v-95.7c0-1.9 1.6-3.4 3.6-3.4h17.4c1.8 0.1 3.3 1.5 3.4 3.2v12.5h0.3c4.6-12.1 13.1-17.7 24.6-17.7 11.6 0 18.9 5.6 24.2 17.7 4.5-12.1 14.7-17.7 25.7-17.7 7.8 0 16.4 3.2 21.6 10.4 5.9 8.1 4.7 19.8 4.7 30v60.4c0 1.9-1.6 3.5-3.6 3.5h-18.7c-1.8-0.2-3.3-1.7-3.3-3.5v-50.7c0-4 0.4-14.1-0.5-17.9-1.4-6.5-5.6-8.3-11-8.3-4.5 0-9.2 3-11.1 7.9-1.9 4.8-1.8 12.9-1.8 18.3v50.7c0 1.9-1.6 3.5-3.6 3.5h-18.6c-1.9-0.2-3.3-1.7-3.3-3.5l-0.1-50.7c0-10.7 1.8-26.4-11.4-26.4-13.4 0-12.9 15.3-12.9 26.4v50.7c0 1.9-1.6 3.5-3.6 3.5zm344.5-104.3c27.7 0 42.6 23.7 42.6 53.9 0 29.2-16.5 52.3-42.6 52.3-27.1 0-41.9-23.7-41.9-53.3 0-29.8 14.9-52.9 41.9-52.9zm0.2 19.5c-13.8 0-14.6 18.7-14.6 30.4 0 11.7-0.2 36.6 14.4 36.6 14.5 0 15.1-20.1 15.1-32.4 0-8-0.3-17.7-2.7-25.4-2.1-6.6-6.3-9.2-12.2-9.2zm78.3 84.8h-18.6c-1.8-0.2-3.3-1.7-3.3-3.5v-95.7c0.1-1.8 1.7-3.1 3.6-3.1h17.2c1.7 0.1 3 1.2 3.4 2.7v14.6h0.3c5.2-13.1 12.5-19.3 25.4-19.3 8.4 0 16.5 3 21.8 11.2 4.8 7.7 4.8 20.6 4.8 29.8v60.2c-0.2 1.7-1.7 3.1-3.5 3.1h-18.7c-1.7-0.2-3.2-1.4-3.3-3.1v-51.9c0-10.5 1.2-25.8-11.7-25.8-4.5 0-8.7 3-10.8 7.7-2.6 5.8-2.9 11.6-2.9 18.1v51.5c-0.1 1.9-1.7 3.5-3.7 3.5zm-229.5-0.3c-1.3 1.1-3.1 1.2-4.5 0.4-6.1-5.1-7.2-7.5-10.6-12.4-10.3 10.4-17.5 13.6-30.8 13.6-15.7 0-27.9-9.7-27.9-29.1 0-15.1 8.2-25.4 19.9-30.4 10.1-4.5 24.3-5.3 35.1-6.5v-2.4c0-4.5 0.3-9.7-2.3-13.5-2.3-3.5-6.6-4.9-10.5-4.9-7.1 0-13.4 3.7-15 11.2-0.3 1.7-1.5 3.3-3.2 3.4l-18.1-1.9c-1.5-0.4-3.2-1.6-2.7-3.9 4.1-21.9 23.9-28.6 41.6-28.6 9.1 0 21 2.5 28.1 9.3 9.1 8.5 8.2 19.8 8.2 32.1v29c0 8.8 3.6 12.6 7 17.3 1.3 1.7 1.5 3.7 0 5-3.8 3.1-10.6 9-14.3 12.3 0 0 0 0 0 0zm-18.8-45.4v-4.1c-13.5 0-27.8 2.9-27.8 18.8 0 8 4.2 13.5 11.4 13.5 5.2 0 9.9-3.2 12.9-8.5 3.6-6.4 3.5-12.5 3.5-19.7zm-225.6 45.4c-1.2 1.1-3 1.2-4.4 0.4-6.2-5.1-7.3-7.5-10.7-12.4-10.2 10.4-17.5 13.6-30.7 13.6-15.7 0-27.9-9.7-27.9-29.1 0-15.1 8.2-25.4 19.8-30.4 10.2-4.5 24.3-5.3 35.1-6.5v-2.4c0-4.5 0.3-9.7-2.3-13.5-2.2-3.5-6.6-4.9-10.4-4.9-7.1 0-13.5 3.7-15 11.2-0.3 1.7-1.6 3.3-3.2 3.4l-18.1-1.9c-1.6-0.4-3.2-1.6-2.8-3.9 4.2-21.9 23.9-28.6 41.7-28.6 9 0 20.9 2.5 28 9.3 9.1 8.5 8.3 19.8 8.3 32.1v29c0 8.8 3.6 12.6 7 17.3 1.2 1.7 1.4 3.7-0.1 5-3.8 3.1-10.5 9-14.3 12.3 0 0 0 0 0 0zm-18.8-45.4v-4.1c-13.5 0-27.7 2.9-27.7 18.8 0 8 4.1 13.5 11.3 13.5 5.2 0 9.9-3.2 12.9-8.5 3.7-6.4 3.5-12.5 3.5-19.7z"/></svg>