<svg version="1.2" xmlns="http://www.w3.org/2000/svg" viewBox="0 0 250 250" width="250" height="250"><style>.a{fill:#ebe2d7}.b{fill:#1e1915}</style><path fill-rule="evenodd" class="a" d="m250 0v250h-250v-250z"/><path fill-rule="evenodd" class="b" d="m170 23.1c3.6-0.7 7.3 0 10.3 3 2.9 2.2 4.4 5.8 4.4 9.5 0 3.7-1.5 7.4-5.2 10.3l-18.4 14.7q-2.2 1.5-2.2 3.7 0 2.2 0.8 3.7c13.9 15.4 16.9 37.5 7.3 55.9-11.7 23.5-38.2 33.8-63.9 25q-2.2-0.8-4.5 0c-1.4 0.7-2.2 1.4-3.6 2.9l-8.1 11c0 0-6.6 8.1 3.7 8.1 25.7-1.5 32.3-1.5 46.3 0 22.8 1.5 32.3 16.2 32.3 28 0 13.2-8.8 28.6-32.3 28.6-17.7-0.7-28.7-0.7-47.1 0q-3.7 0-6.6 0-2.9 0-4.4 0c-6.6 0-14.7-1.4-14.7-8.8 0-6.6 5.9-9.6 9.5-10.3 3.7-0.7 7.4 0 11.1 0.7q2.9 0 6.6 0.8 2.2 0 4.4 0c5.2 0.7 9.6 0.7 16.9 0.7q5.2 0 8.8 0c5.9 0 8.1 0 10.3 0 11.1-0.7 16.2-5.1 16.2-11.7 0-6.7-5.1-10.3-14.7-11.8-13.2-2.2-19.8-1.5-31.6-0.7-4.4 0-8.8 0.7-14 0.7-5.1 0-21.3 0-23.5-12.5 0-3.7 0-9.6 7.3-19.9l6.7-8.8c2.9-4.4 4.4-7.3 0-13.2 0 0-3-3.7-4.5-5.2-10.2-13.9-12.5-35.3-3.6-52.2 13.2-25.7 46.3-36.7 71.3-22 2.2 1.4 3.7 1.4 5.9 1.4 1.4-0.7 2.2-1.4 2.9-2.9q0-0.7 0.8-1.5c0 0 1.4-3.7 4.4-8.8 1.4-3.7 4.4-8.1 5.8-11.8q3.4-5.5 8.9-6.6zm-69.1 112.5c15.4 8.1 33 2.2 44.8-20.6 11-23.5 6.6-44.1-8.8-51.4-21.3-10.3-39.7 8.8-46.3 22.8-11.8 22.7-5.9 41.1 9.5 49.2z"/></svg>