<svg version="1.2" xmlns="http://www.w3.org/2000/svg" viewBox="0 0 593 593" width="593" height="593"><style>.a{fill:#006eab;stroke:#fff;stroke-width:3.9}</style><path class="a" d="m496.7 208c-27.1 0-55.5-9-55.5-9 0 0-40.4-12.6-69.9-12.6-44.4 0-74.8 36.7-74.8 36.7v-29.7c0 0 29.1-34.5 74.7-34.5 16.6 0 37.7 0.9 72.9 11.5 35.1 10.6 53.3 9.3 53.3 9.3 39.8 0 78.6-13.6 89.3-17.7v-40.7c-11.4 3.5-54.2 16.3-90 16.3-27.1 0-55.5-9-55.5-9 0 0-40.4-12.5-69.9-12.5-44.4 0-74.8 36.6-74.8 36.6v-29.7c0 0 29.1-34.4 74.7-34.4 16.6 0 37.7 0.9 72.9 11.5 35.1 10.6 53.4 9.3 53.4 9.3 39.7 0 78.5-13.7 89.2-17.7v-45.1c0 0-48.5 20-90.7 20-42.2 0-67.9-20.2-115.1-20.2-47.3 0-84.4 31.9-84.4 31.9 0 0-37.1-31.9-84.3-31.9-47.3 0-73 20.2-115.2 20.2-42.1 0-90.6-20-90.6-20v467.6c0 0 43.8 18.4 87.7 18.4 35.4 0 81.3-25.8 113.2-23.8 28.5 1.9 45.3 14.9 58.1 31.3 2.9 5.1 8.6 5.4 8.6 5.4h45c0 0 5.7-0.3 8.6-5.4 12.8-16.4 29.6-29.4 58.1-31.3 32-2 72.7 23.3 113.3 23.8 45.1 0.5 87.7-18.4 87.7-18.4v-41.2c-11.4 3.6-54.2 16.3-90 16.3-27.1 0-55.5-9-55.5-9 0 0-40.3-12.5-69.9-12.5-44.4 0-74.8 36.6-74.8 36.6v-29.7c0 0 29.2-34.4 74.7-34.4 16.6 0 37.8 0.9 72.9 11.5 35.1 10.6 53.4 9.3 53.4 9.3 39.8 0 78.6-13.7 89.2-17.7v-40.8c-11.4 3.6-54.2 16.4-90 16.4-27.1 0-55.5-9-55.5-9 0 0-40.3-12.6-69.9-12.6-44.4 0-74.8 36.7-74.8 36.7v-29.7c0 0 29.2-34.5 74.7-34.5 16.6 0 37.8 0.9 72.9 11.5 35.1 10.6 53.4 9.3 53.4 9.3 39.8 0 78.6-13.6 89.2-17.7v-40.7c-11.4 3.6-54.2 16.3-90 16.3-27.1 0-55.5-9-55.5-9 0 0-40.3-12.5-69.9-12.5-44.4 0-74.8 36.7-74.8 36.7v-29.8c0 0 29.2-34.4 74.7-34.4 16.6 0 37.8 0.9 72.9 11.5 35.1 10.6 53.4 9.3 53.4 9.3 39.8 0 78.6-13.7 89.2-17.7v-40.8c-11.4 3.6-54.2 16.4-90 16.4-27.1 0-55.5-9-55.5-9 0 0-40.3-12.5-69.9-12.5-44.4 0-74.8 36.6-74.8 36.6v-29.7c0 0 29.2-34.5 74.7-34.5 16.6 0 37.8 0.9 72.9 11.5 35.1 10.7 53.4 9.4 53.4 9.4 39.8 0 78.6-13.7 89.2-17.7v-40.8c-11.4 3.6-54.2 16.4-90 16.4z"/></svg>