<svg version="1.2" xmlns="http://www.w3.org/2000/svg" viewBox="0 0 313 313" width="313" height="313">
	<title>unnamedz</title>
	<style>
		.s0 { fill: #f0522a } 
		.s1 { fill: #f0532c } 
	</style>
	<path fill-rule="evenodd" class="s0" d="m143.2 24.7c1.9 0 1.9 0 3.8-0.1 13.8 0 25.9 2.4 36.1 12.4 11.2 13.5 12.2 29.4 12.2 46.1q0 2.6 0 5.2 0 7 0 14 0 4.3 0 8.7 0.1 15.3 0.1 30.6 0 14.1 0 28.3 0.1 12.3 0.1 24.5 0 7.3 0 14.5 0 6.9 0 13.8 0 2.5 0 5c0.1 17.2-2.7 32.9-14.9 46-9.7 8.6-21.2 10.7-33.7 10.6q-1.7 0-3.4 0c-13.7-0.2-25.3-2.4-35.7-11.9-12.2-12.9-13.3-30-13.2-46.9q0-2.6 0-5.1 0-7 0-13.9 0-7.3 0-14.6 0-12.3 0.1-24.5 0-14.2 0-28.3 0-13.6 0-27.3 0-5.8 0-11.5 0-6.9 0-13.7 0-2.5 0-5c0-8.4 0.2-16.4 2.3-24.6q0.3-1.4 0.6-2.8c2.7-10.3 9.2-18.9 18.4-24.4 9-4.8 17-5.1 27.2-5.1zm-3.5 44.4q0 2 0 3.9 0 3.5 0 6.9 0 2.6 0 5.1 0 6.9 0 13.8 0 7.4 0 14.7 0 12.3 0 24.6 0.1 14.3 0 28.6 0 12.4 0 24.8 0 7.4 0 14.8 0 7 0 14.1 0 2.6 0 5.2 0 3.6 0 7.2 0 1.1 0 2.2c0 4.4-0.2 6.3 2.3 10 3 0.4 3 0.4 6 0 2-3 2-3 2.3-6.1q0-2 0-3.9 0-3.5 0-6.9 0-2.6 0-5.1 0-6.9 0-13.8 0-7.4 0-14.7 0-12.3 0-24.6-0.1-14.3 0-28.6 0-12.4 0-24.8 0-7.4 0-14.8 0-7 0-14.1 0-2.6 0-5.2 0-3.6 0-7.2c0-1.1 0-1.1 0-2.2 0-4.4 0.2-6.3-2.3-10-3-0.4-3-0.4-6 0-2 3-2 3-2.3 6.1z"/>
	<path class="s0" d="m248.2 24.8q1.9 0 3.9 0c12.6 0 23.9 1.7 34 9.9 8.1 8.4 11.1 19.5 11 30.8q0 1.2 0 2.3 0 3.7 0 7.3 0 2.6 0 5.1 0 6.7 0 13.4 0 8-0.1 16 0 12.2 0 24.4c-14.2 0-28.4 0-43 0-0.1-5.1-0.1-10.2-0.2-15.5q0-4.8-0.1-9.7-0.1-7.7-0.2-15.4-0.1-6.2-0.2-12.4 0-2.4 0-4.7 0-3.4-0.1-6.7c0-1.9 0-1.9 0-3.8 0.1-2.7 0.1-2.7-1.2-3.8q-2.5-0.1-5 0c-1.5 3-1.1 5.7-1.1 9 0 1.1 0 1.1 0 2.2q0 3.7 0 7.4 0 2.6-0.1 5.3 0 7.2 0 14.3 0 6 0 12 0 14.1 0 28.3 0 14.5 0 29.1 0 12.5 0 25 0 7.5 0 15-0.1 7 0 14.1 0 2.5-0.1 5.1 0 3.5 0.1 7.1 0 1.9 0 3.9c0 3.4 0 3.4 2.2 6.2q2 0 4 0c1.5-3 1.2-6.2 1.2-9.5q0-1.1 0-2.3 0.1-3.8 0.1-7.7 0-2.6 0.1-5.3 0.1-7 0.1-14 0.1-8.3 0.2-16.7 0.2-12.8 0.3-25.5c14.2 0 28.4 0 43 0 0.1 20 0.1 20 0.1 28.6q0.1 8.7 0.1 17.5 0.1 7 0.1 14.1 0 2.7 0 5.3c0.2 15.5-0.9 30.7-11.8 42.7-10.2 9.7-22.1 11-35.4 11.1q-1.9 0.1-3.8 0.1c-12.1 0.1-23.3-1.9-32.3-10.4q-0.9-0.9-1.9-1.7c-8.6-8.9-11.3-20-11.2-32.1q-0.1-1.1-0.1-2.3 0-3.8 0-7.6 0-2.8 0-5.5 0-9 0-18.1 0-3.1-0.1-6.2 0-14.6 0-29.2 0-16.8-0.1-33.7 0-13 0-26 0-7.8-0.1-15.6 0-7.3 0-14.6 0-2.7 0-5.4c-0.1-15.2 1.7-28.6 12.5-40.2 5.1-4.9 10.2-7.7 17-9.8q0.9-0.3 1.7-0.5c5.4-1.1 11-0.7 16.5-0.7z"/>
	<path class="s1" d="m19 27c14.5 0 29 0 44 0 0 70.6 0 141.2 0 214 8.9 0 17.8 0 27 0 0 13.5 0 27.1 0 41-23.4 0-46.9 0-71 0 0-84.2 0-168.3 0-255z"/>
</svg>