<svg version="1.2" xmlns="http://www.w3.org/2000/svg" viewBox="0 0 64 64" width="64" height="64"><style>.a{fill:#236192}.b{fill:#4c8c2b}.c{fill:#e87722}</style><path class="a" d="m51.2 21.9c-2.1-13-14.3-21.7-27.3-19.6-13 2.2-21.7 14.4-19.6 27.3 1.6 9.7 8.9 17 17.8 19.2 0.1-0.7 0.1-1.4 0.3-2.1-6.4-2.2-11.5-8-12.7-15.3-1.8-10.6 5.1-20.6 15.4-22.3 9.2-1.5 17.9 4.1 20.9 12.8 2.1 0.8 4 1.9 5.5 3.4 0-1.1-0.1-2.3-0.3-3.4z"/><path class="b" d="m46.3 17.6c-9.9-2.6-20.1 3.1-22.8 13-1.1 4-0.8 8.1 0.7 11.8 0.5-0.7 1.1-1.4 1.8-2-0.4-2.3-0.4-4.7 0.3-7.2 2.3-8.2 10.5-13.1 18.5-10.9 7.9 2.2 12.5 10.6 10.2 18.8-1.5 5.6-5.8 9.6-10.9 11q-0.3 0.9-0.7 1.7c7.3-0.8 13.7-5.9 15.8-13.4 2.7-9.9-3.1-20.1-12.9-22.8z"/><path class="c" d="m40.9 36.9c-6.1-4-14.3-2.3-18.3 3.8-4 6.1-2.3 14.2 3.8 18.2 6.1 4.1 14.3 2.4 18.3-3.8 4-6 2.3-14.2-3.8-18.2zm0.8 17.6c-3.1 4.8-9.5 6.2-14.1 3.2-4.7-3.1-5.9-9.5-2.7-14.3 3.1-4.8 9.4-6.2 14.1-3.2 4.7 3.1 5.9 9.5 2.7 14.3z"/></svg>