<svg version="1.2" xmlns="http://www.w3.org/2000/svg" viewBox="0 0 176 176" width="176" height="176"><style>.a{fill:#604894}.b{fill:#2079b5}.c{fill:#a9306f}.d{fill:#f58220}.e{fill:#3e9a3c}</style><path class="a" d="m98.9 4.7c9.6-1.3 19.3-0.6 29-0.7 5-0.1 10 3.6 10.7 8.7 1.5 6.4-4.2 13.1-10.8 12.6-13.3-0.7-27.2-1.4-39.7 3.8-9.4 3.9-15.2 13.4-16.9 23.2-1.5 5.6-0.4 13.1-6.4 16.4-6.5 4.3-16.4-0.9-16.2-8.8 1.3-14.5 5.7-29.6 16.3-40.2 9-9.1 21.6-13.5 34-15z"/><path class="b" d="m29.9 11.3c5.5-1.9 12.1 1.7 13.5 7.4 1.4 4.9-1.6 9.4-2.9 13.9-3.8 11.6-7.7 24.3-4.3 36.4 3.2 10.7 13.2 17.1 22.9 21.3 5 1.6 8.5 7.2 7.2 12.4-1.1 5.9-7.9 9.9-13.6 7.8-12.6-5.2-24.9-13-32.1-25-6.6-10.8-8-24.2-6-36.6 1.5-10.6 5-20.7 8.4-30.8 1-3.3 3.7-5.8 6.9-6.8z"/><path class="c" d="m102.8 38.1c15-2.9 31.7-1 44 8.7 13.2 10.2 20.1 26.2 24.9 41.7 1.3 4.9 4.5 9.9 2.5 15-1.9 5.9-9.6 8.9-15 5.7-2.8-1.3-4.7-4.1-5.5-7-3.1-11.2-6.6-22.6-13.5-32.2-3.7-5.2-9.1-9.3-15.3-11-7.5-2-15.4-0.9-22.9 0.7-5.1 1.5-11.1-1.3-12.8-6.4-1.7-4.2-0.2-9.2 3.2-12.1 2.9-2.3 6.8-2.5 10.4-3.1z"/><path class="d" d="m117.4 74.1c4.3-1.3 9.4 0.1 11.9 3.9 7.6 12.7 13.2 27.6 10.6 42.7-2.4 15.6-13.4 28.3-25.4 37.9q-7.5 5.9-15.2 11.3c-4.4 3.5-11.5 2.7-15-1.7-3.7-4.4-2.9-11.9 1.9-15.2 11.7-8.2 24.7-16.4 31.1-29.6 5.1-11.3 0.3-23.7-5.6-33.6-3.8-5.5-0.7-13.9 5.7-15.7z"/><path class="e" d="m7.1 104.6c3.5-1.5 7.9-1.1 10.9 1.3 10.4 7.8 21.2 15.8 34 18.9 9.5 2.2 19.4-1.6 26.3-8.2 2.9-2.3 5.3-5.2 7.7-7.9 3.9-4.6 11.7-4.5 15.6-0.1 3.6 3.8 3.9 10.2 0.4 14.1-8 8.9-17.2 17.3-28.7 21.1-12.5 4.7-26.6 2.8-38.6-2.6-10.6-4.6-19.9-11.3-29.2-18-3-2.1-4.7-5.7-5.1-9.2 0.9-3.8 2.8-7.9 6.7-9.4z"/></svg>